<mxfile host="app.diagrams.net" modified="2023-12-13T11:24:53.942Z" agent="Mozilla/5.0 (Windows NT 10.0; Win64; x64) AppleWebKit/537.36 (KHTML, like Gecko) Chrome/120.0.0.0 Safari/537.36" version="22.1.8" etag="Z2GCSO5DzjZdg-20FQfl" type="github">
  <diagram name="Page-1" id="nYdEEnXJkc6JFcU-vYH3">
    <mxGraphModel>
      <root>
        <mxCell id="0" />
        <mxCell id="1" parent="0" />
      </root>
    </mxGraphModel>
  </diagram>
</mxfile>
